{"scene":0,"scenes":[{"nodes":[0]}],"asset":{"version":"2.0","generator":"https://github.com/mikedh/trimesh"},"accessors":[{"componentType":5125,"type":"SCALAR","bufferView":0,"count":3600,"max":[599],"min":[0]},{"componentType":5126,"type":"VEC3","byteOffset":0,"bufferView":1,"count":600,"max":[0.6459609270095825,0.6495190262794495,1.999899983406067],"min":[-0.6459609270095825,-0.6495190262794495,0.10000000149011612]}],"meshes":[{"name":"geometry_0","extras":{"processed":true},"primitives":[{"attributes":{"POSITION":1},"indices":0,"mode":4}]}],"nodes":[{"name":"world","children":[1]},{"name":"geometry_0","mesh":0}],"buffers":[{"uri":"gltf_buffer_0.bin","byteLength":14400},{"uri":"gltf_buffer_1.bin","byteLength":7200}],"bufferViews":[{"buffer":0,"byteOffset":0,"byteLength":14400},{"buffer":1,"byteOffset":0,"byteLength":7200}]}